<svg
   xmlns:dc="http://purl.org/dc/elements/1.1/"
   xmlns:cc="http://creativecommons.org/ns#"
   xmlns:rdf="http://www.w3.org/1999/02/22-rdf-syntax-ns#"
   xmlns:svg="http://www.w3.org/2000/svg"
   xmlns="http://www.w3.org/2000/svg"
   xmlns:sodipodi="http://sodipodi.sourceforge.net/DTD/sodipodi-0.dtd"
   xmlns:inkscape="http://www.inkscape.org/namespaces/inkscape"
   width="150"
   height="30"
   viewBox="0 0 54.907691 11.078306"
   version="1.1"
   id="svg1485"
   inkscape:version="0.92.0 r15299"
   sodipodi:docname="scottish widows.svg">
  <defs
     id="defs1479" />
  <sodipodi:namedview
     id="base"
     pagecolor="#ffffff"
     bordercolor="#666666"
     borderopacity="1.0"
     inkscape:pageopacity="0.0"
     inkscape:pageshadow="2"
     inkscape:zoom="3.8833045"
     inkscape:cx="103.26257"
     inkscape:cy="20.43538"
     inkscape:document-units="mm"
     inkscape:current-layer="layer1"
     showgrid="false"
     fit-margin-top="0"
     fit-margin-left="0"
     fit-margin-right="0"
     fit-margin-bottom="0"
     units="px"
     inkscape:window-width="1280"
     inkscape:window-height="744"
     inkscape:window-x="-4"
     inkscape:window-y="-4"
     inkscape:window-maximized="1" />
  <metadata
     id="metadata1482">
    <rdf:RDF>
      <cc:Work
         rdf:about="">
        <dc:format>image/svg+xml</dc:format>
        <dc:type
           rdf:resource="http://purl.org/dc/dcmitype/StillImage" />
        <dc:title></dc:title>
      </cc:Work>
    </rdf:RDF>
  </metadata>
  <g
     inkscape:label="Layer 1"
     inkscape:groupmode="layer"
     id="layer1"
     transform="translate(264.6906,-269.40594)">
    <g
       id="SW---UI-Kit"
       transform="matrix(0.26458333,0,0,0.26458333,-264.67438,269.53705)"
       style="fill:none;fill-rule:evenodd;stroke:none;stroke-width:1">
      <g
         transform="translate(-350,-454)"
         id="Components-/-Header">
        <g
           transform="translate(160,228)"
           id="Desktop">
          <g
             transform="translate(160,152)"
             id="Group-2">
            <g
               transform="translate(0,48)"
               id="Components-/-Header-/-Brand-Bar">
              <g
                 transform="translate(30,26)"
                 id="SW_Logo_RGB">
                <path
                   id="Shape"
                   d="M 193.10334,0.07576087 C 181.47297,6.7605435 169.08866,11.707283 155.25892,11.105652 145.58256,10.624348 136.64231,8.405 127.30946,6.7828261 121.153,5.7043478 114.99653,7.2017391 110.20519,11.404239 l -2.39566,2.161413 h -0.14276 c 6.59812,-7.4423911 15.39116,-10.3257607 24.72401,-9.4255433 l 5.13038,0.6595652 12.85274,2.2282609 c 10.99241,1.7826087 23.59978,1.4394565 33.76688,-2.9413044 3.05615,-1.1742045 6.03607,-2.5375728 8.92241,-4.08217388 z"
                   inkscape:connector-curvature="0"
                   style="fill:#d3292e" />
                <path
                   id="path1494"
                   d="m 206.42004,15.18337 -0.49073,2.161413 c -0.39259,-0.05794 -0.68256,-0.53924 -1.07515,-0.659566 -1.07515,-0.539239 -2.49382,-0.958152 -3.71619,-0.418913 -0.24058,0.181702 -0.32224,0.50613 -0.19629,0.779892 l 0.44612,0.418913 c 2.00308,1.336956 5.71481,1.336956 5.57205,5.160652 -0.24537,1.559783 -1.51681,2.339674 -2.5875,2.820978 -2.54289,0.659565 -5.52298,0.240652 -8.0614,-0.240652 -0.14722,-0.360978 0.0491,-0.779891 0.0491,-1.198804 l 0.0982,-1.439457 c 1.41866,1.381522 3.51989,2.228261 5.27761,1.14087 0.26807,-0.290264 0.36151,-0.700982 0.24536,-1.078479 l -0.49073,-0.481304 c -1.85586,-1.020543 -4.54597,-1.198804 -5.32668,-3.961848 -0.1963,-1.020543 0.19629,-1.680109 0.68256,-2.339674 2.05216,-1.622174 4.64412,-1.261195 7.0844,-1.078478 z"
                   inkscape:connector-curvature="0"
                   style="fill:#000000" />
                <path
                   id="path1496"
                   d="m 195.13319,15.005109 -3.56897,10.504021 h -5.42036 l 0.19629,-0.721956 c -0.49073,-1.501848 -0.82978,-3.239891 -1.41866,-4.683804 -0.78071,1.7425 -1.36959,3.600869 -2.00309,5.401304 l -5.35344,0.05793 c 0.17991,-0.353092 0.21511,-0.762292 0.0981,-1.14087 l -2.44474,-7.923695 -0.89224,-1.439457 c 1.90494,0 3.71172,-0.120326 5.52297,0 l 2.19938,7.576087 c 0.82978,-1.381522 1.12422,-3.239891 1.75771,-4.741739 0.22201,-0.652163 0.16886,-1.366484 -0.14721,-1.978696 l -0.58442,-0.891304 h 5.32668 c 0.82978,2.522391 1.33836,5.160652 2.29752,7.576087 l 0.19629,-0.298587 1.6105,-4.804131 c 0.17243,-0.873515 -0.0605,-1.778042 -0.63349,-2.46 1.08436,-0.09954 2.17507,-0.109979 3.26114,-0.0312 z"
                   inkscape:connector-curvature="0"
                   style="fill:#000000" />
                <path
                   id="path1498"
                   d="m 88.804784,15.664674 c -0.196293,0.779891 -0.392586,1.559782 -0.535344,2.402065 -1.387436,-1.029456 -2.73472,-1.7425 -4.39875,-1.501848 -0.274219,0.02784 -0.504763,0.217711 -0.584418,0.481305 -0.196294,0.481304 0.294439,0.779891 0.539806,0.962608 1.855862,1.198805 4.545969,1.14087 5.522974,4.01087 0.294439,1.140869 -0.14722,1.978696 -0.780711,2.820978 -2.783794,2.339674 -6.794419,1.381522 -10.01541,0.837826 0,-0.958152 0.09815,-1.7425 0.14722,-2.700652 1.418664,1.381522 3.470819,2.099022 5.228534,1.336957 0.343513,-0.240653 0.579957,-0.815544 0.343513,-1.14087 -1.173297,-1.198804 -2.783793,-1.336957 -4.10431,-2.161413 -0.928052,-0.533034 -1.558397,-1.463585 -1.708642,-2.522391 -0.06471,-1.093296 0.481273,-2.132659 1.418663,-2.700652 2.716876,-1.203261 6.044936,-0.543696 8.926875,-0.124783 z"
                   inkscape:connector-curvature="0"
                   style="fill:#000000" />
                <path
                   id="path1500"
                   d="m 10.671207,15.727065 c -0.140554,0.478074 -0.256695,0.962975 -0.347974,1.452826 l -0.133836,0.891305 C 8.8510345,16.930326 7.0665517,16.288587 5.4025216,16.81 c -0.2737418,0.209859 -0.3565922,0.586056 -0.1962932,0.891304 0.5978018,0.984892 4.3987501,1.336957 5.8620256,3.783587 0.26318,0.666967 0.331254,1.394901 0.196293,2.099022 C 10.23847,26.404891 7.5974353,26.22663 5.4025216,26.346956 3.7470689,26.312825 2.1008075,26.09156 0.49519397,25.687391 0.64061589,24.854723 0.7063435,24.010115 0.69148707,23.165 2.0298491,24.243478 3.5734267,25.085761 5.3356034,24.604457 5.7957917,24.500185 6.1670047,24.161533 6.3126078,23.713152 6.3274225,23.304565 6.0977469,22.926261 5.7281897,22.750543 3.8232543,21.551739 0.20521552,21.489348 0.4505819,17.768152 0.99038793,15.486413 3.127306,15.366087 4.8002586,15.187826 6.7542672,15.0675 8.7618103,15.544348 10.671207,15.727065 Z"
                   inkscape:connector-curvature="0"
                   style="fill:#000000" />
                <path
                   id="path1502"
                   d="m 24.059289,15.785 -0.490733,2.281739 c -1.173297,-1.140869 -2.676724,-1.7425 -4.202457,-1.261196 -0.829784,0.360979 -1.418664,1.439457 -1.467737,2.522392 -0.04907,1.622174 -0.29444,3.542935 0.892241,4.621413 1.124225,1.198804 3.17638,0.958152 4.39875,0.120326 l 0.977005,-0.842283 c 0.04907,0.721957 0.04907,1.501848 0.04907,2.161413 -3.176379,1.261196 -7.865108,1.782609 -10.457069,-1.501848 -0.910333,-1.402839 -1.193312,-3.121539 -0.780711,-4.741739 0.892241,-2.883369 3.421746,-3.841521 5.719267,-3.961847 1.887091,-0.178261 3.555582,0.360978 5.362371,0.60163 z"
                   inkscape:connector-curvature="0"
                   style="fill:#000000" />
                <path
                   id="path1504"
                   d="m 68.573211,15.245761 c -0.14722,1.020543 -0.584418,1.862826 -0.682564,2.883369 -0.972184,-0.74874 -2.147281,-1.188162 -3.372673,-1.261195 l -0.14722,0.120326 0.04907,8.101956 c 0.08263,0.292703 0.197857,0.575229 0.343512,0.842283 h -5.812952 l 0.343513,-1.020544 c 0.04907,-2.820978 0.14722,-5.160652 0.04907,-7.923695 -1.517609,-0.05932 -3.012297,0.384072 -4.25153,1.261195 0.296868,-0.946924 0.54112,-1.909515 0.731638,-2.883369 4.296142,0.05794 8.400452,0.360978 12.750129,-0.120326 z"
                   inkscape:connector-curvature="0"
                   style="fill:#000000" />
                <path
                   id="path1506"
                   d="m 53.150819,15.486413 1.418664,-0.178261 c -0.287028,0.921707 -0.498884,1.865115 -0.633492,2.820978 -1.07515,-0.721956 -2.230603,-1.261195 -3.568965,-1.140869 -0.09815,2.763043 -0.04907,5.463696 -0.04907,7.923695 l 0.392586,1.078479 H 44.97343 c 0.731638,-1.7425 0.245366,-4.082174 0.44612,-6.123261 L 45.3214,16.988261 c -1.494621,-0.0024 -2.956647,0.436318 -4.202457,1.261195 l 0.633491,-2.883369 c 0.731638,0 1.610496,0.120326 2.297522,0.178261 z"
                   inkscape:connector-curvature="0"
                   style="fill:#000000" />
                <path
                   id="path1508"
                   d="m 128.38461,25.870109 h -5.42483 c 0.19615,-0.481444 0.19615,-1.020404 0,-1.501848 -0.49073,-1.261196 -0.63349,-2.642718 -1.22237,-3.841522 -0.73163,1.680109 -1.27144,3.542935 -1.90493,5.280978 l -0.14722,0.120326 h -5.22854 c 0.39259,-0.891304 -0.14722,-1.742499 -0.29444,-2.580326 -1.07515,-2.580326 -1.27144,-5.704347 -2.93101,-7.923695 l 5.42483,-0.05794 0.19629,0.240652 c 0.73164,2.46 1.22237,4.982391 2.05216,7.322065 l 0.24536,-0.298587 c 0.53981,-1.862826 1.46774,-3.480543 1.61496,-5.52163 -0.0979,-0.644949 -0.4126,-1.237433 -0.89224,-1.680109 l 5.27761,-0.05793 0.27213,0.29413 2.00308,7.26413 0.14722,-0.05793 1.6908,-4.799674 c 0.1864,-0.961019 -0.0636,-1.955123 -0.68257,-2.714022 1.05731,0 2.39567,-0.04457 3.42175,0 z"
                   inkscape:connector-curvature="0"
                   style="fill:#000000" />
                <path
                   id="path1510"
                   d="m 139.08705,16.627283 v 7.745434 c 0.0725,0.50016 0.22302,0.985875 0.44612,1.439457 -1.85586,0.120326 -3.85895,0 -5.76388,0.06239 0.24628,-0.529534 0.39729,-1.098254 0.44612,-1.680109 l -0.0982,-7.740978 -0.39258,-1.140869 h 5.75049 z"
                   inkscape:connector-curvature="0"
                   style="fill:#000000" />
                <path
                   id="path1512"
                   d="m 75.952047,15.366087 c -0.298769,0.531835 -0.452599,1.132678 -0.44612,1.7425 0,2.763043 -0.196293,5.704348 0.14722,8.284674 l 0.245366,0.539239 -5.799569,0.05794 c 0.239432,-0.531986 0.390129,-1.099517 0.446121,-1.680109 v -7.683043 c -0.09527,-0.417467 -0.245268,-0.820549 -0.446121,-1.198805 1.84694,-0.124782 3.948168,-0.0045 5.853103,-0.06239 z"
                   inkscape:connector-curvature="0"
                   style="fill:#000000" />
                <path
                   id="path1514"
                   d="m 97.160625,15.424022 c -0.633491,1.078478 -0.392586,2.673913 -0.446121,4.073261 l 0.196293,0.0312 3.618043,-0.02228 c 0.0491,-1.078479 0.24536,-2.642718 -0.14722,-3.60087 l -0.30337,-0.508043 h 5.87541 c -0.27271,0.501283 -0.4383,1.05366 -0.48627,1.622173 l 0.0982,7.745435 c 0.0546,0.402346 0.18803,0.790009 0.39258,1.14087 h -5.79956 c 0.78071,-1.198805 0.34351,-2.98587 0.44612,-4.545652 l -0.0491,-0.120326 h -3.760794 c 0.04907,1.559782 -0.29444,3.378043 0.392586,4.697173 h -5.799569 c 0.347069,-0.690238 0.515768,-1.456245 0.490733,-2.22826 l -0.09815,-7.20174 -0.392587,-1.078478 h 5.799569 z"
                   inkscape:connector-curvature="0"
                   style="fill:#000000" />
                <path
                   id="path1516"
                   d="m 173.68371,19.087283 c 0.35515,1.529811 0.0734,3.138112 -0.78071,4.456521 -2.44475,2.999239 -6.40184,2.763044 -9.62729,2.161413 -1.75771,-0.539239 -3.85894,-1.680108 -4.3006,-4.140108 -0.1963,-1.559783 0,-3.302283 0.977,-4.501087 1.22237,-1.381522 2.85071,-1.782609 4.32291,-2.228261 0.38078,-0.04007 0.76379,-0.05496 1.14653,-0.04457 3.12731,0.04457 7.03979,0.160434 8.26216,4.296087 z m -7.91865,-2.820979 c -0.89224,0.178261 -1.41866,1.261196 -1.61049,2.228261 -0.0491,1.862826 -0.39259,3.663261 0.63349,5.223044 0.54467,0.72206 1.50492,0.991963 2.34659,0.659565 0.55138,-0.274834 0.97271,-0.754927 1.1733,-1.336957 0.49713,-1.830544 0.48015,-3.762478 -0.0491,-5.584021 -0.41648,-0.963757 -1.48164,-1.471985 -2.49382,-1.189892 z"
                   inkscape:connector-curvature="0"
                   style="fill:#000000" />
                <path
                   id="path1518"
                   d="m 39.892112,18.365326 c 0.730182,1.685419 0.639613,3.613341 -0.245366,5.223044 -2.676724,3.600869 -8.503061,3.168586 -10.751509,2.099021 -1.36959,-0.60163 -2.88194,-1.7425 -3.323599,-3.542935 -0.33408,-1.415019 -0.160409,-2.902285 0.490733,-4.2025 2.052155,-2.941304 5.473901,-3.06163 8.65028,-2.763043 1.931702,0.3075 4.006164,1.087391 5.179461,3.186413 z m -8.257694,-1.381522 c -0.688648,0.604059 -1.065998,1.487441 -1.026078,2.402066 -0.04461,1.7425 -0.392586,4.2025 1.369591,5.223043 0.724099,0.314238 1.560539,0.222716 2.199375,-0.240652 0.477818,-0.517423 0.788711,-1.166507 0.892241,-1.862826 0.09815,-1.920761 0.29444,-3.841522 -0.731637,-5.401305 -0.72116,-0.763375 -1.91953,-0.814736 -2.703492,-0.115869 z"
                   inkscape:connector-curvature="0"
                   style="fill:#000000" />
                <path
                   id="path1520"
                   d="m 155.31246,16.627283 c 1.27144,0.891304 1.75771,2.580326 1.75771,4.322826 -0.10996,0.926876 -0.44539,1.812769 -0.977,2.580326 -1.27145,1.622174 -3.02916,2.099021 -4.83595,2.228261 -2.93101,0.17826 -5.86203,0.05793 -8.84657,0.120326 0.53534,-0.721957 0.34351,-1.680109 0.39258,-2.580326 l -0.0491,-7.130435 -0.39259,-0.891304 c 4.39429,0.387717 9.18563,-0.993805 12.95089,1.350326 z m -7.47699,0.120326 v 7.384456 l 0.14722,0.120326 c 1.33837,0.05794 2.88194,0.120326 3.56897,-1.501848 0.44612,-1.336956 0.53534,-3.360217 -0.0982,-4.621413 -0.78517,-1.564239 -2.25291,-1.501847 -3.6225,-1.394891 z"
                   inkscape:connector-curvature="0"
                   style="fill:#000000" />
                <path
                   id="path1522"
                   d="M 97.941336,28.321196 C 93.105388,33.361522 87.484267,36.904457 81.180582,37.925 71.812047,39.364457 62.889634,36.365217 53.815539,35.046087 c -9.966336,-1.7425 -21.061358,-2.281739 -30.782328,0.481304 -4.834827,1.276121 -9.517884,3.069084 -13.9680386,5.347826 -0.1472198,-0.05793 -0.1026077,0 -0.1026077,-0.133695 l 3.2254523,-1.680109 c 10.947802,-5.463696 22.475561,-9.184891 35.426444,-8.405 4.67916,0.262558 9.333606,0.858274 13.927888,1.782609 l 12.90181,2.700652 c 6.839031,1.782609 14.56138,0.721956 19.986207,-4.140109 l 3.225453,-2.700652 h 0.29444 z"
                   inkscape:connector-curvature="0"
                   style="fill:#000000" />
              </g>
            </g>
          </g>
        </g>
      </g>
    </g>
  </g>
</svg>