<svg version="1.1" id="Layer_1" xmlns="http://www.w3.org/2000/svg" xmlns:xlink="http://www.w3.org/1999/xlink" x="0px" y="0px" width="101px" height="105px" viewBox="0 0 51 55" enable-background="new 0 0 51 55" xml:space="preserve">
    <g>
        <polygon fill="#1D3278" points="45.946,32.777 43.739,42.273 41.42,32.777 38.229,32.777 35.871,42.168 33.73,32.777 30.243,32.777 34.102,47.604 37.531,47.604 39.795,38.227 42.097,47.604 45.466,47.604 45.498,47.48 49.382,32.777" />
        <polygon fill="#1D3278" points="13.978,42.252 5.909,32.777 2.49,32.777 2.49,47.607 5.821,47.607 5.821,38.154 13.866,47.607 17.308,47.607 17.308,32.777 13.978,32.777 	" />
        <path fill="#1D3278" d="M2.137,52.156v-0.014c0-1.285,0.983-2.373,2.367-2.373c0.802,0,1.292,0.223,1.766,0.621l-0.513,0.615 c-0.356-0.305-0.704-0.494-1.287-0.494c-0.845,0-1.488,0.738-1.488,1.617v0.014c0,0.943,0.622,1.641,1.559,1.641 c0.435,0,0.826-0.141,1.11-0.35v-0.857H4.478v-0.703h1.955v1.928C5.981,54.189,5.33,54.52,4.518,54.52 C3.082,54.52,2.137,53.494,2.137,52.156" />
        <path fill="#1D3278" d="M6.919,52.156v-0.014c0-1.293,0.999-2.373,2.405-2.373c1.411,0,2.395,1.07,2.395,2.359v0.014 c0,1.291-0.996,2.377-2.407,2.377C7.902,54.52,6.919,53.447,6.919,52.156 M10.874,52.156v-0.014c0-0.893-0.651-1.631-1.561-1.631 c-0.911,0-1.545,0.729-1.545,1.617v0.014c0,0.893,0.648,1.635,1.558,1.635C10.239,53.777,10.874,53.049,10.874,52.156" />
        <polygon fill="#1D3278" points="11.661,49.846 12.554,49.846 13.938,53.375 15.313,49.846 16.187,49.846 14.278,54.471 13.57,54.471" />
        <polygon fill="#1D3278" points="16.729,49.846 20.133,49.846 20.133,50.57 17.536,50.57 17.536,51.764 19.839,51.764 19.839,52.484 17.536,52.484 17.536,53.717 20.168,53.717 20.168,54.438 16.729,54.438" />
        <path fill="#1D3278" d="M20.95,49.846h2.046c0.577,0,1.03,0.176,1.325,0.459c0.243,0.252,0.379,0.592,0.379,0.99v0.014 c0,0.756-0.452,1.209-1.096,1.395l1.241,1.734h-0.952l-1.127-1.598h-1.012v1.598H20.95V49.846z M22.937,52.125 c0.577,0,0.945-0.305,0.945-0.77V51.34c0-0.49-0.355-0.758-0.952-0.758h-1.174v1.543H22.937z" />
        <polygon fill="#1D3278" points="25.412,49.846 26.158,49.846 28.618,53.02 28.618,49.846 29.411,49.846 29.411,54.438 28.734,54.438 26.203,51.172 26.203,54.438 25.412,54.438" />
        <polygon fill="#1D3278" points="30.229,49.846 31.088,49.846 32.485,52.02 33.882,49.846 34.741,49.846 34.741,54.438 33.936,54.438 33.936,51.145 32.485,53.311 32.46,53.311 31.024,51.158 31.024,54.438 30.229,54.438" />
        <polygon fill="#1D3278" points="35.512,49.846 38.913,49.846 38.913,50.57 36.318,50.57 36.318,51.764 38.62,51.764 38.62,52.484 36.318,52.484 36.318,53.717 38.949,53.717 38.949,54.438 35.512,54.438" />
        <polygon fill="#1D3278" points="39.741,49.846 40.488,49.846 42.949,53.02 42.949,49.846 43.744,49.846 43.744,54.438 43.068,54.438 40.536,51.172 40.536,54.438 39.741,54.438" />
        <polygon fill="#1D3278" points="45.837,50.596 44.382,50.596 44.382,49.85 48.105,49.85 48.105,50.596 46.65,50.596 46.65,54.438 45.837,54.438" />
        <path fill="#1D3278" d="M18.224,45.541l1.96-2.346c1.356,1.117,2.777,1.832,4.498,1.832c1.356,0,2.175-0.539,2.175-1.422v-0.045 c0-0.84-0.517-1.266-3.036-1.914c-3.035-0.777-4.993-1.615-4.993-4.605v-0.043c0-2.732,2.196-4.539,5.274-4.539 c2.194,0,4.068,0.686,5.596,1.914l-1.722,2.496c-1.338-0.928-2.648-1.484-3.918-1.484c-1.271,0-1.937,0.582-1.937,1.309v0.045 c0,0.99,0.644,1.312,3.25,1.982c3.057,0.793,4.779,1.893,4.779,4.518v0.045c0,2.99-2.28,4.67-5.532,4.67 C22.336,47.953,20.033,47.158,18.224,45.541" />
        <path fill="#DD0332" d="M10.42,4.628C10.109,4.64,9.925,4.82,9.857,5.185c0,0-0.076,0.539-0.159,1.458 C9.62,7.484,9.524,8.816,9.524,10.401c0,3.568,0.468,8.641,2.688,12.531c1.707,2.964,4.114,4.637,6.802,4.725 c-1.048-0.802-2.294-2.132-2.957-4.197c-0.624-1.963-0.942-4.281-0.942-6.891c0-3.605,0.603-6.694,0.79-7.559 c0.003-0.021,0.006-0.035,0.008-0.043c0.107-0.5,0.397-0.901,0.784-1.104c-2.739-1.759-5.098-2.793-5.552-2.988 c-0.273-0.125-0.422-0.178-0.422-0.18h-0.005l-0.003-0.002C10.615,4.651,10.517,4.628,10.42,4.628" />
        <path fill="#DD0332" d="M33.769,8.798c-0.068,0-0.146,0.032-0.231,0.099c-0.002,0.001-0.085,0.064-0.239,0.199 c-0.158,0.124-0.381,0.315-0.688,0.589c-0.41,0.366-1.247,1.139-2.222,2.212c-1.547,1.72-3.597,4.433-4.569,7.574 c-0.56,1.83-0.84,3.418-0.831,4.714c-0.011,0.969,0.143,1.792,0.457,2.443c0.299,0.633,0.753,1.084,1.392,1.379 c0.27,0.118,0.608,0.177,1.013,0.177h0.019c1.874,0,5.003-1.563,6.08-5.042c0.581-1.874,0.874-4.085,0.874-6.574 c0-3.089-0.446-5.781-0.642-6.795c-0.073-0.373-0.115-0.578-0.115-0.578C34.018,9.019,33.928,8.798,33.769,8.798" />
        <path fill="#DD0332" d="M17.275,8.798c-0.166,0-0.264,0.219-0.318,0.403c-0.007,0.035-0.047,0.234-0.115,0.574 c-0.052,0.257-0.156,0.811-0.268,1.593c-0.176,1.222-0.386,3.113-0.386,5.201c0,2.528,0.299,4.736,0.885,6.562 c1.103,3.486,4.308,5.053,6.231,5.053h0.021c0.404,0,0.761-0.062,1.059-0.191c0.158-0.063,0.309-0.144,0.478-0.263 c-0.142-0.188-0.268-0.401-0.382-0.641c-0.376-0.78-0.562-1.729-0.575-2.9c0.012-1.446,0.315-3.14,0.901-5.031 c0.049-0.175,0.11-0.352,0.17-0.521c0.023-0.068,0.047-0.137,0.072-0.205c-2.046-5.081-6.744-8.911-7.275-9.333 c-0.167-0.137-0.254-0.201-0.254-0.203C17.425,8.832,17.342,8.798,17.275,8.798" />
        <path fill="#DD0332" d="M25.505,0.481c-0.113,0-0.23,0.089-0.348,0.268c-0.004,0.003-0.098,0.142-0.254,0.4 c-0.234,0.393-0.46,0.776-0.686,1.171c-0.508,0.897-1.276,2.348-2.068,4.152c-0.543,1.234-1.038,2.515-1.47,3.813 c1.522,1.521,3.562,3.894,4.921,6.772c1.048-2.256,2.644-4.503,4.744-6.685c-1.433-4.349-3.443-7.895-4.246-9.223 c-0.171-0.266-0.259-0.408-0.259-0.408C25.678,0.5,25.542,0.481,25.505,0.481" />
        <path fill="#DD0332" d="M40.566,4.628c-0.059,0-0.159,0.014-0.283,0.064L40.28,4.695h-0.003c-0.002,0.001-0.151,0.055-0.419,0.178 c-0.262,0.106-0.606,0.27-1.048,0.476l-0.154,0.072c-1.353,0.656-2.671,1.387-3.916,2.173c-0.144,0.081-0.283,0.168-0.422,0.262 c0.383,0.193,0.681,0.601,0.788,1.104c0.003,0.014,0.006,0.028,0.01,0.051c0.184,0.862,0.779,3.953,0.779,7.556 c0,2.597-0.31,4.915-0.921,6.891c-0.653,2.073-1.87,3.398-2.893,4.194c2.646-0.127,5.02-1.792,6.704-4.725 c2.222-3.887,2.688-8.959,2.688-12.527c0-1.264-0.056-2.533-0.171-3.77c-0.085-0.908-0.16-1.449-0.16-1.455 C41.076,4.82,40.888,4.64,40.566,4.628" />
        <path fill="#DD0332" d="M33.22,1.611c-0.034,0-0.07,0.003-0.105,0.008H33.11h-0.003c-0.083,0.009-0.166,0.042-0.252,0.102 l-0.005,0.003l-0.004,0.002c-0.006,0.005-0.587,0.36-1.484,1.006c-0.498,0.355-1.288,0.945-2.256,1.745 c0.703,1.459,1.332,2.948,1.872,4.431c1.157-0.91,2.42-1.776,3.859-2.643c-0.405-2.061-0.874-3.594-1.057-4.165 c-0.008-0.02-0.012-0.033-0.015-0.044C33.654,1.762,33.471,1.611,33.22,1.611" />
        <path fill="#DD0332" d="M17.779,1.611c-0.25,0-0.433,0.15-0.546,0.446c-0.004,0.011-0.007,0.024-0.015,0.044 c-0.183,0.571-0.65,2.104-1.056,4.165c1.438,0.866,2.703,1.73,3.856,2.641c0.513-1.439,1.144-2.928,1.874-4.43 c-0.765-0.633-1.524-1.22-2.256-1.745c-0.897-0.646-1.48-1.001-1.485-1.006l-0.004-0.002l-0.003-0.003 c-0.085-0.06-0.17-0.093-0.25-0.102h-0.006h-0.003C17.85,1.613,17.814,1.611,17.779,1.611" />
        <path fill="#DD0332" d="M4.817,11.256c-0.779,0-1.23,0.023-1.235,0.023c-0.307,0.02-0.59,0.188-0.776,0.464 c-0.11,0.163-0.167,0.368-0.157,0.569c0.054,0.536,0.411,2.478,2.728,5.402c1.188-0.589,2.368-1.107,3.508-1.543 c-0.236-1.458-0.377-3.047-0.416-4.732c-1.419-0.131-2.536-0.172-3.232-0.18C5.088,11.256,4.947,11.256,4.817,11.256" />
        <path fill="#DD0332" d="M46.181,11.256c-0.131,0-0.271,0-0.42,0.002c-0.692,0.008-1.811,0.049-3.228,0.18 c-0.039,1.622-0.183,3.214-0.42,4.732c1.143,0.434,2.319,0.954,3.509,1.543c2.322-2.933,2.679-4.875,2.731-5.405 c0.018-0.181-0.082-0.457-0.158-0.565c-0.188-0.276-0.471-0.444-0.778-0.464C47.412,11.279,46.953,11.256,46.181,11.256" />
        <path fill="#DD0332" d="M41.919,17.254c-0.475,2.39-1.217,4.48-2.207,6.213c-1.033,1.813-2.324,3.188-3.846,4.096 c11.03-0.6,14.144-4.147,14.468-4.558h0.002c0.11-0.167,0.164-0.353,0.164-0.547c0-0.321-0.148-0.63-0.391-0.804 c0,0-0.13-0.088-0.361-0.246l-0.002-0.003l-0.005-0.003c-0.172-0.129-0.425-0.298-0.747-0.505 c-0.083-0.055-0.172-0.115-0.264-0.174c-0.791-0.508-2.059-1.277-3.616-2.054C44.038,18.126,42.966,17.65,41.919,17.254" />
        <path fill="#DD0332" d="M9.082,17.254c-3.72,1.41-6.715,3.368-7.839,4.151c-0.225,0.165-0.352,0.249-0.357,0.252 C0.65,21.829,0.5,22.138,0.5,22.458c0,0.194,0.055,0.376,0.163,0.543c0.009,0.01,0.016,0.021,0.02,0.028 c0.023,0.024,0.046,0.052,0.072,0.084c0.014,0.017,0.028,0.034,0.045,0.052c0.075,0.083,0.25,0.269,0.528,0.496 c0.464,0.399,1.299,0.998,2.641,1.604c2.778,1.257,6.627,2.054,11.165,2.307c-1.503-0.903-2.822-2.313-3.844-4.105 C10.298,21.731,9.556,19.645,9.082,17.254" />
        <path fill="#DD0332" d="M40.536,28.37c-0.563,0-1.401,0.116-2.668,0.292c-0.186,0.023-0.383,0.051-0.588,0.078 c-0.555,0.078-1.229,0.117-2.122,0.117c-0.549,0-1.116-0.014-1.719-0.029l-0.052-0.002c-0.573-0.01-1.221-0.025-1.872-0.025 c-1.352,0-3.099,0.057-4.639,0.484c-0.076,0.023-0.131,0.104-0.123,0.16c0.006,0.049,0.1,0.066,0.181,0.066 c0.022,0,0.048-0.004,0.071-0.004c0.611-0.053,1.203-0.08,1.76-0.08c2.008,0,3.382,0.348,4.71,0.68 c1.246,0.318,2.427,0.615,4.063,0.615c1.747,0,3.132-0.371,3.701-0.996c0.19-0.211,0.277-0.439,0.256-0.682 C41.449,28.58,41.301,28.37,40.536,28.37" />
        <path fill="#DD0332" d="M10.459,28.37c-0.762,0-0.908,0.21-0.956,0.675c-0.023,0.242,0.06,0.471,0.247,0.676 c0.558,0.621,1.981,1.002,3.71,1.002c1.638,0,2.817-0.297,4.067-0.615c1.325-0.332,2.698-0.684,4.709-0.68 c0.554,0,1.146,0.027,1.754,0.08c0.028,0,0.051,0.004,0.074,0.004c0.081,0,0.176-0.018,0.183-0.066 c0.007-0.057-0.049-0.137-0.129-0.16c-1.537-0.428-3.285-0.484-4.636-0.484c-0.649,0-1.298,0.016-1.869,0.025l-0.055,0.002 c-0.603,0.016-1.169,0.029-1.717,0.029c-0.895,0-1.57-0.039-2.123-0.117c-0.21-0.027-0.413-0.059-0.604-0.082 C11.856,28.486,11.022,28.37,10.459,28.37" />
    </g>
</svg>