<svg version="1.1" id="Layer_1" xmlns="http://www.w3.org/2000/svg" xmlns:xlink="http://www.w3.org/1999/xlink" x="0px" y="0px" width="156px" height="43px" viewBox="0 0 260 71" enable-background="new 0 0 260 71" xml:space="preserve">
    <g>
        <g>
            <linearGradient id="SVGID_1_" gradientUnits="userSpaceOnUse" x1="43.2119" y1="122.2891" x2="208.7119" y2="-43.211">
                <stop offset="0.2581" style="stop-color:#0071BC" />
                <stop offset="0.631" style="stop-color:#1F9CD8;stop-opacity:0.8323" />
                <stop offset="0.7029" style="stop-color:#25A5DE;stop-opacity:0.8" />
            </linearGradient>
            <rect fill="url(#SVGID_1_)" width="260" height="71" />
        </g>
        <g>
            <path fill="#FFFFFF" d="M55.865,25.783v21.691h-4.844V25.783H42.34v-4.061h22.597v4.061H55.865z" />
            <path fill="#FFFFFF" d="M94.296,47.475L87.012,36.84c-0.733-0.012-1.757-0.053-3.074-0.123v10.758h-5.03V21.723 c0.273,0,1.323-0.044,3.148-0.132c1.825-0.088,3.297-0.132,4.415-0.132c6.93,0,10.395,2.531,10.395,7.594 c0,1.523-0.479,2.912-1.435,4.166c-0.957,1.254-2.161,2.139-3.614,2.654l8.066,11.602H94.296z M83.938,25.695v7.154 c0.894,0.07,1.577,0.105,2.049,0.105c2.024,0,3.505-0.27,4.443-0.809c0.938-0.539,1.406-1.588,1.406-3.146 c0-1.266-0.503-2.15-1.509-2.654s-2.589-0.756-4.75-0.756C85.056,25.59,84.51,25.625,83.938,25.695z" />
            <path fill="#FFFFFF" d="M113.801,47.475V21.723h4.843v25.752H113.801z" />
            <path fill="#FFFFFF" d="M144.167,47.475h-8.347V21.74c3.677-0.164,6.253-0.246,7.731-0.246c2.832,0,5.045,0.571,6.642,1.714 c1.596,1.143,2.394,2.774,2.394,4.896c0,2.039-1.143,3.65-3.428,4.834c3.391,1.113,5.086,3.41,5.086,6.891 c0,2.344-0.938,4.204-2.813,5.581S147.135,47.475,144.167,47.475z M140.664,25.396v6.17c0.745,0.047,1.527,0.07,2.348,0.07 c3.154,0,4.731-1.119,4.731-3.357c0-1.98-1.435-2.971-4.303-2.971C142.683,25.309,141.757,25.338,140.664,25.396z M140.664,35.135 v8.508c0.981,0.082,1.776,0.123,2.385,0.123c2.161,0,3.729-0.346,4.704-1.037c0.975-0.691,1.462-1.84,1.462-3.445 c0-1.465-0.453-2.531-1.359-3.199c-0.907-0.668-2.49-1.002-4.751-1.002C142.633,35.082,141.819,35.1,140.664,35.135z" />
            <path fill="#FFFFFF" d="M183.847,47.475l-1.994-5.221h-9.352l-1.9,5.221h-5.384l10.88-26.104h2.124l10.972,26.104H183.847z M177.158,29.246l-3.278,9.51h6.558L177.158,29.246z" />
            <path fill="#FFFFFF" d="M201.469,47.475V21.723h4.844v21.691h12.333v4.061H201.469z" />
        </g>
        <linearGradient id="SVGID_2_" gradientUnits="userSpaceOnUse" x1="0" y1="-2" x2="1" y2="-2">
            <stop offset="0" style="stop-color:#FFFFFF" />
            <stop offset="1" style="stop-color:#000000" />
        </linearGradient>
        <rect y="-2" fill="url(#SVGID_2_)" width="1" height="0" />
        <linearGradient id="SVGID_3_" gradientUnits="userSpaceOnUse" x1="259" y1="72" x2="261.8994" y2="72">
            <stop offset="0" style="stop-color:#FFFFFF" />
            <stop offset="1" style="stop-color:#000000" />
        </linearGradient>
        <rect x="259" y="72" fill="url(#SVGID_3_)" width="2.899" height="0" />
    </g>
</svg>